<?xml version="1.0" encoding="UTF-8" standalone="no"?>
<svg class="center" width="61px" height="50px" viewBox="0 0 61 50" version="1.1" xmlns="http://www.w3.org/2000/svg" xmlns:xlink="http://www.w3.org/1999/xlink" xmlns:sketch="http://www.bohemiancoding.com/sketch/ns">
    <!-- Generator: Sketch 3.2.2 (9983) - http://www.bohemiancoding.com/sketch -->
    <title>Board Report</title>
    <desc>Created with Sketch.</desc>
    <defs></defs>
    <g id="Page-1" stroke="none" stroke-width="1" fill="none" fill-rule="evenodd" sketch:type="MSPage">
        <g id="Menu-Expanded" sketch:type="MSArtboardGroup" transform="translate(-1035.000000, -201.000000)" fill="#727773">
            <path d="M1091.37767,204.8219 C1091.13831,204.438415 1091,203.98536 1091,203.5 C1091,202.119288 1092.11929,201 1093.5,201 C1094.88071,201 1096,202.119288 1096,203.5 C1096,204.880712 1094.88071,206 1093.5,206 C1093.35485,206 1093.2126,205.987631 1093.07422,205.963888 L1081.38932,217.247872 L1080,215.809192 L1091.37767,204.8219 Z M1067.99559,210.350342 C1067.91819,209.039306 1066.83047,208 1065.5,208 C1064.11929,208 1063,209.119288 1063,210.5 C1063,210.594108 1063.0052,210.687002 1063.01533,210.77841 L1054.84662,217.393303 C1054.45794,217.144344 1053.99583,217 1053.5,217 C1052.11929,217 1051,218.119288 1051,219.5 C1051,220.880712 1052.11929,222 1053.5,222 C1054.88071,222 1056,220.880712 1056,219.5 C1056,219.351126 1055.98699,219.205292 1055.96204,219.063572 L1055.96204,219.063572 L1064.03514,212.526102 C1064.44679,212.82424 1064.95287,213 1065.5,213 C1066.17921,213 1066.79516,212.72914 1067.24572,212.289543 L1076.03375,218.911802 C1076.23011,220.096575 1077.25955,221 1078.5,221 C1079.88071,221 1081,219.880712 1081,218.5 C1081,217.119288 1079.88071,216 1078.5,216 C1077.75139,216 1077.07962,216.329042 1076.62145,216.85039 L1067.99559,210.350342 L1067.99559,210.350342 Z M1039.99326,228.314973 C1039.99773,228.376065 1040,228.437767 1040,228.5 C1040,229.880712 1038.88071,231 1037.5,231 C1036.11929,231 1035,229.880712 1035,228.5 C1035,227.119288 1036.11929,226 1037.5,226 C1038.08981,226 1038.63192,226.204252 1039.05945,226.545882 L1050.86854,220 L1051.83815,221.749239 L1039.99326,228.314973 L1039.99326,228.314973 Z M1091.07581,235.113409 C1091.0263,234.917142 1091,234.711642 1091,234.5 C1091,233.119288 1092.11929,232 1093.5,232 C1094.88071,232 1096,233.119288 1096,234.5 C1096,235.880712 1094.88071,237 1093.5,237 C1093.06993,237 1092.66523,236.891405 1092.31181,236.70014 L1081.38932,247.247872 L1080,245.809192 L1091.07581,235.113409 L1091.07581,235.113409 Z M1068.02217,238.483336 C1067.60061,238.807361 1067.0728,239 1066.5,239 C1066.06071,239 1065.64788,238.886697 1065.28914,238.68772 L1056.99211,246.700072 C1056.89019,247.987238 1055.81337,249 1054.5,249 C1053.23098,249 1052.18281,248.054483 1052.02152,246.829503 L1039.85685,245.335869 L1039.85685,245.335869 C1039.51294,246.305538 1038.58757,247 1037.5,247 C1036.11929,247 1035,245.880712 1035,244.5 C1035,243.119288 1036.11929,242 1037.5,242 C1038.4462,242 1039.26963,242.525658 1039.69419,243.300877 L1052.59199,244.884528 C1053.05057,244.343447 1053.73518,244 1054.5,244 C1055.1611,244 1055.76227,244.256611 1056.20934,244.675661 L1056.20934,244.675661 L1064.06898,237.085688 C1064.02389,236.89782 1064,236.7017 1064,236.5 C1064,235.119288 1065.11929,234 1066.5,234 C1067.88071,234 1069,235.119288 1069,236.5 C1069,236.538255 1068.99914,236.576309 1068.99744,236.614144 L1078.09308,246.032951 C1078.22551,246.011273 1078.36144,246 1078.5,246 C1079.88071,246 1081,247.119288 1081,248.5 C1081,249.880712 1079.88071,251 1078.5,251 C1077.11929,251 1076,249.880712 1076,248.5 C1076,248.003792 1076.14457,247.541348 1076.39388,247.15249 L1068.02217,238.483336 L1068.02217,238.483336 Z" id="line-chart-2" sketch:type="MSShapeGroup"></path>
        </g>
    </g>
</svg>